# xmcd CD database file
#
# Track frame offsets:
#	182
#	21272
#	43457
#	64612
#	88310
#	119552
#	140210
#	157972
#	179642
#	196350
#
# Disc length: 2958 seconds
#
# Revision: 3
# Processed by: cddbd v1.4PL0 Copyright (c) Steve Scherf et al.
# Submitted via: CDex 1.40Beta9
#
DISCID=9b0b8c0a
DTITLE=Commissioned - Will You Be Ready
DYEAR=1900
DGENRE=
TTITLE0=So Good To Know (The Savior)
TTITLE1=Waiting To Hear From You
TTITLE2=Don't Worry
TTITLE3=Save Me Now
TTITLE4=Will You Be Ready
TTITLE5=Lord Jesus Help Me (Help Somebody Else)
TTITLE6=Let's Not Crucify Him Again
TTITLE7=More Than You'll Ever Know
TTITLE8=Take Your Burdens (To The Lord)
TTITLE9=A Praise For You
EXTD=
EXTT0=
EXTT1=
EXTT2=
EXTT3=
EXTT4=
EXTT5=
EXTT6=
EXTT7=
EXTT8=
EXTT9=
PLAYORDER=
